{"title":"Dororo 2007 DVDRip Xvid BigPerm LKRG","uid":6710577,"size":744557111,"categoryP":"video","categoryS":"movies","magnet":"?xt=urn:btih:116efe81ce936bcf8cc4e4e37337cd773f99630f&amp;dn=Dororo+2007+DVDRip+Xvid+BigPerm+LKRG&amp;tr=udp%3A%2F%2Ftracker.openbittorrent.com%3A80&amp;tr=udp%3A%2F%2Fopen.demonii.com%3A1337&amp;tr=udp%3A%2F%2Ftracker.coppersurfer.tk%3A6969&amp;tr=udp%3A%2F%2Fexodus.desync.com%3A6969","seeders":2,"leechers":0,"uploader":".BONE.","files":7,"time":1317337361,"description":"\nPLOT\n\nA female warrior who was raised as a man joins a young samurai's quest to recover 48 of his body parts\nfrom 48 demons and to avenge her parents death.\n &lt;a href=&quot;\nhttp://www.imdb.com/title/tt0780503/&quot; rel=&quot;nofollow&quot; target=&quot;_NEW&quot;&gt;\nhttp://www.imdb.com/title/tt0780503/&lt;/a&gt;\n\nEncoded By .......: BigPerm1828\nRuntime ..........: 2h 18mn\nFile Size ........: 797 MB\nResolution .......: 672 x 368\nIMDb URL .........: \nGenre ............: Action | Fantasy | Horror\nLanguage .........: Japanese\nSubtitles ........: Hardcoded English\nVideo\nID : 0\nFormat : MPEG-4 Visual\nFormat profile : Advanced Simple@L5\nFormat settings, BVOP : Yes\nFormat settings, QPel : No\nFormat settings, GMC : No warppoints\nFormat settings, Matrix : Default (H.263)\nMuxing mode : Packed bitstream\nCodec ID : XVID\nCodec ID/Hint : XviD\nDuration : 2h 18mn\nBit rate : 570 Kbps\nWidth : 672 pixels\nHeight : 368 pixels\nDisplay aspect ratio : 16:9\nFrame rate : 23.976 fps\nColor space : YUV\nChroma subsampling : 4:2:0\nBit depth : 8 bits\nScan type : Progressive\nCompression mode : Lossy\nBits/(Pixel*Frame) : 0.096\nStream size : 565 MiB (71%)\nWriting library : XviD 1.2.1 (UTC 2008-12-04)\nAudio\nID : 1\nFormat : AC-3\nFormat/Info : Audio Coding 3\nMode extension : CM (complete main)\nCodec ID : 2000\nDuration : 2h 18mn\nBit rate mode : Constant\nBit rate : 224 Kbps\nChannel(s) : 2 channels\nChannel positions : Front: L R\nSampling rate : 48.0 KHz\nBit depth : 16 bits\nCompression mode : Lossy\nStream size : 222 MiB (28%)\nAlignment : Split accross interleaves\nInterleave, duration : 42 ms (1.00 video frame)\nInterleave, preload duration : 500 ms\n","torrent":{"xt":"urn:btih:116efe81ce936bcf8cc4e4e37337cd773f99630f","amp;dn":"Dororo+2007+DVDRip+Xvid+BigPerm+LKRG","amp;tr":["udp%3A%2F%2Ftracker.openbittorrent.com%3A80","udp%3A%2F%2Fopen.demonii.com%3A1337","udp%3A%2F%2Ftracker.coppersurfer.tk%3A6969","udp%3A%2F%2Fexodus.desync.com%3A6969"],"infoHash":"116efe81ce936bcf8cc4e4e37337cd773f99630f","infoHashBuffer":{"type":"Buffer","data":[17,110,254,129,206,147,107,207,140,196,228,227,115,55,205,119,63,153,99,15]},"announce":[],"urlList":[]}}